<svg width="101" height="11" viewBox="0 0 101 11" fill="none" xmlns="http://www.w3.org/2000/svg">
<path d="M8.304 9.112C8.2 9.224 8.036 9.34 7.812 9.46C7.588 9.572 7.328 9.676 7.032 9.772C6.744 9.868 6.448 9.944 6.144 10C5.84 10.064 5.552 10.096 5.28 10.096C4.56 10.096 3.912 9.992 3.336 9.784C2.76 9.568 2.268 9.272 1.86 8.896C1.452 8.512 1.14 8.06 0.924 7.54C0.708 7.02 0.6 6.452 0.6 5.836C0.6 5.028 0.72 4.328 0.96 3.736C1.208 3.136 1.54 2.64 1.956 2.248C2.38 1.848 2.864 1.552 3.408 1.36C3.96 1.168 4.536 1.072 5.136 1.072C5.704 1.072 6.224 1.136 6.696 1.264C7.168 1.384 7.568 1.536 7.896 1.72L7.332 3.34C7.188 3.26 6.996 3.18 6.756 3.1C6.516 3.02 6.272 2.956 6.024 2.908C5.776 2.852 5.556 2.824 5.364 2.824C4.884 2.824 4.46 2.884 4.092 3.004C3.724 3.124 3.412 3.304 3.156 3.544C2.908 3.784 2.72 4.084 2.592 4.444C2.464 4.796 2.4 5.208 2.4 5.68C2.4 6.096 2.472 6.472 2.616 6.808C2.76 7.136 2.96 7.416 3.216 7.648C3.48 7.88 3.788 8.056 4.14 8.176C4.5 8.296 4.896 8.356 5.328 8.356C5.576 8.356 5.804 8.34 6.012 8.308C6.22 8.268 6.396 8.208 6.54 8.128V7.06H5.016V5.38H8.304V9.112ZM11.6966 10.252C11.2246 10.252 10.8286 10.108 10.5086 9.82C10.1886 9.524 10.0206 9.144 10.0046 8.68V4.756H11.6846V8.056C11.7006 8.288 11.7606 8.476 11.8646 8.62C11.9686 8.756 12.1446 8.824 12.3926 8.824C12.6406 8.824 12.8526 8.74 13.0286 8.572C13.2126 8.404 13.3526 8.176 13.4486 7.888C13.5526 7.592 13.6046 7.26 13.6046 6.892V4.756H15.2846V10H13.7606L13.6286 9.04L13.6526 9.148C13.5326 9.364 13.3806 9.556 13.1966 9.724C13.0126 9.892 12.7926 10.02 12.5366 10.108C12.2886 10.204 12.0086 10.252 11.6966 10.252ZM19.2204 10.144C18.7324 10.144 18.2884 10.048 17.8884 9.856C17.4964 9.656 17.1844 9.352 16.9524 8.944C16.7204 8.536 16.6044 8.016 16.6044 7.384C16.6044 6.792 16.7244 6.28 16.9644 5.848C17.2044 5.416 17.5204 5.084 17.9124 4.852C18.3044 4.612 18.7204 4.492 19.1604 4.492C19.6804 4.492 20.0724 4.58 20.3364 4.756C20.6084 4.924 20.8324 5.112 21.0084 5.32L20.9364 5.524L21.0924 4.756H22.6524V10H20.9724V8.86L21.1044 9.22C21.0884 9.22 21.0404 9.268 20.9604 9.364C20.8804 9.452 20.7604 9.56 20.6004 9.688C20.4484 9.808 20.2564 9.912 20.0244 10C19.8004 10.096 19.5324 10.144 19.2204 10.144ZM19.7004 8.776C19.9004 8.776 20.0804 8.748 20.2404 8.692C20.4004 8.628 20.5404 8.54 20.6604 8.428C20.7804 8.308 20.8844 8.16 20.9724 7.984V6.7C20.9084 6.524 20.8124 6.376 20.6844 6.256C20.5564 6.128 20.4044 6.032 20.2284 5.968C20.0524 5.896 19.8564 5.86 19.6404 5.86C19.4004 5.86 19.1764 5.924 18.9684 6.052C18.7684 6.172 18.6084 6.34 18.4884 6.556C18.3684 6.772 18.3084 7.02 18.3084 7.3C18.3084 7.58 18.3724 7.832 18.5004 8.056C18.6284 8.28 18.7964 8.456 19.0044 8.584C19.2204 8.712 19.4524 8.776 19.7004 8.776ZM24.3835 0.532H26.0635V10H24.3835V0.532ZM29.9297 10.144C29.4417 10.144 29.0057 10.032 28.6217 9.808C28.2377 9.576 27.9337 9.244 27.7097 8.812C27.4937 8.38 27.3857 7.868 27.3857 7.276C27.3857 6.684 27.5057 6.18 27.7457 5.764C27.9857 5.348 28.3137 5.032 28.7297 4.816C29.1457 4.6 29.6177 4.492 30.1457 4.492C30.4817 4.492 30.8017 4.544 31.1057 4.648C31.4177 4.752 31.6777 4.912 31.8857 5.128V5.656V0.532H33.5537V10H31.8737V8.98L32.0057 9.34C31.7337 9.564 31.4297 9.756 31.0937 9.916C30.7577 10.068 30.3697 10.144 29.9297 10.144ZM30.4817 8.728C30.7057 8.728 30.9017 8.7 31.0697 8.644C31.2457 8.58 31.3977 8.492 31.5257 8.38C31.6617 8.26 31.7777 8.112 31.8737 7.936V6.652C31.8097 6.476 31.7097 6.328 31.5737 6.208C31.4457 6.08 31.2857 5.984 31.0937 5.92C30.9097 5.848 30.7057 5.812 30.4817 5.812C30.2337 5.812 30.0017 5.876 29.7857 6.004C29.5777 6.124 29.4097 6.292 29.2817 6.508C29.1537 6.724 29.0897 6.972 29.0897 7.252C29.0897 7.532 29.1537 7.784 29.2817 8.008C29.4097 8.232 29.5777 8.408 29.7857 8.536C30.0017 8.664 30.2337 8.728 30.4817 8.728ZM34.874 7.312C34.874 6.776 34.998 6.296 35.246 5.872C35.502 5.448 35.858 5.116 36.314 4.876C36.77 4.628 37.294 4.504 37.886 4.504C38.486 4.504 39.006 4.628 39.446 4.876C39.886 5.116 40.222 5.448 40.454 5.872C40.694 6.296 40.814 6.776 40.814 7.312C40.814 7.848 40.694 8.332 40.454 8.764C40.222 9.188 39.886 9.524 39.446 9.772C39.006 10.02 38.478 10.144 37.862 10.144C37.286 10.144 36.77 10.032 36.314 9.808C35.866 9.584 35.514 9.26 35.258 8.836C35.002 8.412 34.874 7.904 34.874 7.312ZM36.566 7.324C36.566 7.596 36.622 7.844 36.734 8.068C36.846 8.284 36.998 8.456 37.19 8.584C37.382 8.712 37.598 8.776 37.838 8.776C38.102 8.776 38.33 8.712 38.522 8.584C38.714 8.456 38.862 8.284 38.966 8.068C39.07 7.844 39.122 7.596 39.122 7.324C39.122 7.044 39.07 6.796 38.966 6.58C38.862 6.364 38.714 6.192 38.522 6.064C38.33 5.936 38.102 5.872 37.838 5.872C37.598 5.872 37.382 5.936 37.19 6.064C36.998 6.192 36.846 6.364 36.734 6.58C36.622 6.796 36.566 7.044 36.566 7.324ZM48.9918 1.168C49.7198 1.168 50.3358 1.292 50.8398 1.54C51.3438 1.78 51.7278 2.124 51.9918 2.572C52.2558 3.012 52.3878 3.536 52.3878 4.144C52.3878 4.504 52.3318 4.868 52.2198 5.236C52.1158 5.596 51.9438 5.924 51.7038 6.22C51.4718 6.516 51.1558 6.756 50.7558 6.94C50.3638 7.116 49.8798 7.204 49.3038 7.204H48.0558V10H46.3158V1.168H48.9918ZM49.2918 5.512C49.5558 5.512 49.7758 5.468 49.9518 5.38C50.1278 5.284 50.2638 5.168 50.3598 5.032C50.4638 4.888 50.5358 4.74 50.5758 4.588C50.6238 4.436 50.6478 4.304 50.6478 4.192C50.6478 4.104 50.6318 3.988 50.5998 3.844C50.5758 3.692 50.5198 3.54 50.4318 3.388C50.3438 3.236 50.2078 3.108 50.0238 3.004C49.8478 2.9 49.6078 2.848 49.3038 2.848H48.0558V5.512H49.2918ZM55.8767 10.144C55.3887 10.144 54.9447 10.048 54.5447 9.856C54.1527 9.656 53.8407 9.352 53.6087 8.944C53.3767 8.536 53.2607 8.016 53.2607 7.384C53.2607 6.792 53.3807 6.28 53.6207 5.848C53.8607 5.416 54.1767 5.084 54.5687 4.852C54.9607 4.612 55.3767 4.492 55.8167 4.492C56.3367 4.492 56.7287 4.58 56.9927 4.756C57.2647 4.924 57.4887 5.112 57.6647 5.32L57.5927 5.524L57.7487 4.756H59.3087V10H57.6287V8.86L57.7607 9.22C57.7447 9.22 57.6967 9.268 57.6167 9.364C57.5367 9.452 57.4167 9.56 57.2567 9.688C57.1047 9.808 56.9127 9.912 56.6807 10C56.4567 10.096 56.1887 10.144 55.8767 10.144ZM56.3567 8.776C56.5567 8.776 56.7367 8.748 56.8967 8.692C57.0567 8.628 57.1967 8.54 57.3167 8.428C57.4367 8.308 57.5407 8.16 57.6287 7.984V6.7C57.5647 6.524 57.4687 6.376 57.3407 6.256C57.2127 6.128 57.0607 6.032 56.8847 5.968C56.7087 5.896 56.5127 5.86 56.2967 5.86C56.0567 5.86 55.8327 5.924 55.6247 6.052C55.4247 6.172 55.2647 6.34 55.1447 6.556C55.0247 6.772 54.9647 7.02 54.9647 7.3C54.9647 7.58 55.0287 7.832 55.1567 8.056C55.2847 8.28 55.4527 8.456 55.6607 8.584C55.8767 8.712 56.1087 8.776 56.3567 8.776ZM61.5318 2.452H63.2118V4.732H64.4838V6.04H63.2118V10H61.5318V6.04H60.7158V4.732H61.5318V2.452ZM67.2744 4.756L67.4304 6.196L67.3944 5.98C67.5464 5.668 67.7544 5.404 68.0184 5.188C68.2824 4.964 68.5424 4.792 68.7984 4.672C69.0624 4.552 69.2624 4.492 69.3984 4.492L69.3144 6.172C68.9224 6.124 68.5864 6.188 68.3064 6.364C68.0264 6.54 67.8104 6.772 67.6584 7.06C67.5064 7.348 67.4304 7.644 67.4304 7.948V10H65.7624V4.756H67.2744ZM70.6843 4.756H72.3643V10H70.6843V4.756ZM70.6483 2.896C70.6483 2.648 70.7443 2.444 70.9363 2.284C71.1363 2.124 71.3483 2.044 71.5723 2.044C71.7963 2.044 72.0003 2.124 72.1843 2.284C72.3763 2.444 72.4723 2.648 72.4723 2.896C72.4723 3.144 72.3763 3.348 72.1843 3.508C72.0003 3.66 71.7963 3.736 71.5723 3.736C71.3483 3.736 71.1363 3.66 70.9363 3.508C70.7443 3.348 70.6483 3.144 70.6483 2.896ZM76.3025 10.144C75.8145 10.144 75.3705 10.048 74.9705 9.856C74.5785 9.656 74.2665 9.352 74.0345 8.944C73.8025 8.536 73.6865 8.016 73.6865 7.384C73.6865 6.792 73.8065 6.28 74.0465 5.848C74.2865 5.416 74.6025 5.084 74.9945 4.852C75.3865 4.612 75.8025 4.492 76.2425 4.492C76.7625 4.492 77.1545 4.58 77.4185 4.756C77.6905 4.924 77.9145 5.112 78.0905 5.32L78.0185 5.524L78.1745 4.756H79.7345V10H78.0545V8.86L78.1865 9.22C78.1705 9.22 78.1225 9.268 78.0425 9.364C77.9625 9.452 77.8425 9.56 77.6825 9.688C77.5305 9.808 77.3385 9.912 77.1065 10C76.8825 10.096 76.6145 10.144 76.3025 10.144ZM76.7825 8.776C76.9825 8.776 77.1625 8.748 77.3225 8.692C77.4825 8.628 77.6225 8.54 77.7425 8.428C77.8625 8.308 77.9665 8.16 78.0545 7.984V6.7C77.9905 6.524 77.8945 6.376 77.7665 6.256C77.6385 6.128 77.4865 6.032 77.3105 5.968C77.1345 5.896 76.9385 5.86 76.7225 5.86C76.4825 5.86 76.2585 5.924 76.0505 6.052C75.8505 6.172 75.6905 6.34 75.5705 6.556C75.4505 6.772 75.3905 7.02 75.3905 7.3C75.3905 7.58 75.4545 7.832 75.5825 8.056C75.7105 8.28 75.8785 8.456 76.0865 8.584C76.3025 8.712 76.5345 8.776 76.7825 8.776ZM85.6439 10V1.168H88.2839C89.1719 1.168 89.9279 1.3 90.5519 1.564C91.1759 1.828 91.6759 2.18 92.0519 2.62C92.4359 3.06 92.7159 3.552 92.8919 4.096C93.0679 4.64 93.1559 5.188 93.1559 5.74C93.1559 6.396 93.0359 6.988 92.7959 7.516C92.5639 8.036 92.2439 8.484 91.8359 8.86C91.4279 9.228 90.9559 9.512 90.4199 9.712C89.8839 9.904 89.3159 10 88.7159 10H85.6439ZM87.3839 8.32H88.4159C88.8559 8.32 89.2559 8.264 89.6159 8.152C89.9759 8.032 90.2839 7.86 90.5399 7.636C90.8039 7.412 91.0039 7.132 91.1399 6.796C91.2839 6.452 91.3559 6.06 91.3559 5.62C91.3559 5.044 91.2599 4.576 91.0679 4.216C90.8839 3.848 90.6519 3.564 90.3719 3.364C90.0999 3.164 89.8199 3.028 89.5319 2.956C89.2439 2.876 88.9999 2.836 88.7999 2.836H87.3839V8.32ZM97.4937 1.168C98.4137 1.168 99.1457 1.356 99.6897 1.732C100.234 2.1 100.506 2.652 100.506 3.388C100.506 3.932 100.37 4.388 100.098 4.756C99.8337 5.116 99.4697 5.388 99.0057 5.572C98.5497 5.748 98.0257 5.836 97.4337 5.836L97.1577 4.9C97.8857 4.9 98.5297 5 99.0897 5.2C99.6577 5.4 100.106 5.688 100.434 6.064C100.762 6.432 100.926 6.876 100.926 7.396C100.926 7.876 100.838 8.284 100.662 8.62C100.494 8.948 100.262 9.216 99.9657 9.424C99.6777 9.624 99.3497 9.772 98.9817 9.868C98.6137 9.956 98.2337 10 97.8417 10H94.9017V1.168H97.4937ZM97.6977 4.78C98.0417 4.78 98.2937 4.676 98.4537 4.468C98.6217 4.26 98.7057 4.024 98.7057 3.76C98.7057 3.456 98.6017 3.228 98.3937 3.076C98.1937 2.924 97.9217 2.848 97.5777 2.848H96.6417V4.78H97.6977ZM97.7577 8.38C98.0137 8.38 98.2457 8.348 98.4537 8.284C98.6617 8.212 98.8257 8.104 98.9457 7.96C99.0657 7.808 99.1257 7.62 99.1257 7.396C99.1257 7.14 99.0537 6.948 98.9097 6.82C98.7657 6.684 98.5777 6.592 98.3457 6.544C98.1217 6.488 97.8857 6.46 97.6377 6.46H96.6417V8.38H97.7577Z" fill="#FF5757"/>
</svg>
